<svg width="16" height="17" viewBox="0 0 16 17" fill="none" xmlns="http://www.w3.org/2000/svg">
<path d="M15.8591 3.67883L11.0066 8.50005L15.8591 13.3213C15.9468 13.1379 16 12.9352 16 12.7188V4.2813C16 4.06483 15.9468 3.86218 15.8591 3.67883Z" fill="#949494"/>
<path d="M14.5937 2.875H1.40618C1.18971 2.875 0.987055 2.92822 0.803711 3.01594L7.00568 9.18666C7.55406 9.73503 8.4458 9.73503 8.99418 9.18666L15.1961 3.01594C15.0128 2.92822 14.8101 2.875 14.5937 2.875Z" fill="#949494"/>
<path d="M0.140938 3.67883C0.0532188 3.86218 0 4.06483 0 4.2813V12.7188C0 12.9353 0.0532188 13.138 0.140938 13.3213L4.99341 8.50005L0.140938 3.67883Z" fill="#949494"/>
<path d="M10.3437 9.16284L9.65702 9.8495C8.7433 10.7632 7.25652 10.7632 6.3428 9.8495L5.65618 9.16284L0.803711 13.9841C0.987055 14.0718 1.18971 14.125 1.40618 14.125H14.5937C14.8101 14.125 15.0128 14.0718 15.1961 13.9841L10.3437 9.16284Z" fill="#949494"/>
</svg>
