<svg width="16" height="17" viewBox="0 0 16 17" fill="none" xmlns="http://www.w3.org/2000/svg">
<g clip-path="url(#clip0_5_966)">
<path d="M7.88599 8.20724C8.94482 8.20724 9.86169 7.82749 10.6108 7.07822C11.36 6.32908 11.7397 5.41246 11.7397 4.3535C11.7397 3.29491 11.36 2.37817 10.6107 1.62878C9.86145 0.879759 8.9447 0.5 7.88599 0.5C6.82703 0.5 5.9104 0.879759 5.16125 1.6289C4.41211 2.37804 4.03223 3.29479 4.03223 4.3535C4.03223 5.41246 4.41211 6.3292 5.16138 7.07834C5.91064 7.82736 6.82739 8.20724 7.88599 8.20724Z" fill="#949494"/>
<path d="M14.629 12.8032C14.6074 12.4914 14.5637 12.1514 14.4994 11.7922C14.4344 11.4304 14.3508 11.0884 14.2507 10.7757C14.1473 10.4526 14.0067 10.1335 13.8329 9.82775C13.6525 9.51037 13.4406 9.234 13.2028 9.00659C12.9541 8.76867 12.6497 8.57739 12.2976 8.43787C11.9468 8.29907 11.558 8.22876 11.1421 8.22876C10.9788 8.22876 10.8208 8.29578 10.5157 8.49438C10.328 8.61682 10.1084 8.75842 9.86328 8.91504C9.65369 9.04858 9.36975 9.1737 9.01904 9.28698C8.67688 9.3977 8.32947 9.45385 7.98657 9.45385C7.64368 9.45385 7.29639 9.3977 6.95386 9.28698C6.60352 9.17382 6.31958 9.0487 6.11023 8.91516C5.86743 8.76001 5.64771 8.61841 5.45715 8.49426C5.15247 8.29565 4.99438 8.22864 4.83105 8.22864C4.41504 8.22864 4.02637 8.29907 3.67566 8.43799C3.32385 8.57727 3.01929 8.76855 2.77039 9.00671C2.53271 9.23425 2.32068 9.51049 2.1405 9.82775C1.9668 10.1335 1.82617 10.4525 1.72266 10.7759C1.62268 11.0885 1.53906 11.4304 1.47412 11.7922C1.40979 12.1509 1.36609 12.4911 1.34448 12.8036C1.32324 13.1097 1.3125 13.4275 1.3125 13.7484C1.3125 14.5836 1.578 15.2597 2.10156 15.7584C2.61865 16.2505 3.30286 16.5001 4.13489 16.5001H11.839C12.671 16.5001 13.355 16.2506 13.8722 15.7584C14.3959 15.2601 14.6614 14.5838 14.6614 13.7483C14.6613 13.4259 14.6504 13.1079 14.629 12.8032Z" fill="#949494"/>
</g>
<defs>
<clipPath id="clip0_5_966">
<rect width="16" height="16" fill="white" transform="translate(0 0.5)"/>
</clipPath>
</defs>
</svg>
