<svg width="56" height="56" viewBox="0 0 56 56" fill="none" xmlns="http://www.w3.org/2000/svg">
<g filter="url(#filter0_d_5_1329)">
<circle cx="28" cy="28" r="24" fill="#FCFCFC"/>
</g>
<g clip-path="url(#clip0_5_1329)">
<path d="M28.8839 28.0002L35.8169 21.0672C36.061 20.8231 36.061 20.4273 35.8169 20.1833C35.5729 19.9392 35.1771 19.9392 34.933 20.1833L28 27.1163L21.067 20.1833C20.8229 19.9392 20.4271 19.9392 20.1831 20.1833C19.939 20.4273 19.939 20.8231 20.1831 21.0672L27.1161 28.0002L20.1831 34.9332C19.939 35.1773 19.939 35.5731 20.1831 35.8171C20.3051 35.9392 20.4651 36.0002 20.625 36.0002C20.785 36.0002 20.9449 35.9392 21.067 35.8171L28 28.8841L34.933 35.8171C35.055 35.9392 35.215 36.0002 35.375 36.0002C35.5349 36.0002 35.6949 35.9392 35.8169 35.8171C36.061 35.573 36.061 35.1773 35.8169 34.9332L28.8839 28.0002Z" fill="#565656"/>
</g>
<defs>
<filter id="filter0_d_5_1329" x="0" y="0" width="56" height="56" filterUnits="userSpaceOnUse" color-interpolation-filters="sRGB">
<feFlood flood-opacity="0" result="BackgroundImageFix"/>
<feColorMatrix in="SourceAlpha" type="matrix" values="0 0 0 0 0 0 0 0 0 0 0 0 0 0 0 0 0 0 127 0" result="hardAlpha"/>
<feOffset/>
<feGaussianBlur stdDeviation="2"/>
<feComposite in2="hardAlpha" operator="out"/>
<feColorMatrix type="matrix" values="0 0 0 0 0.505882 0 0 0 0 0.505882 0 0 0 0 0.505882 0 0 0 0.25 0"/>
<feBlend mode="normal" in2="BackgroundImageFix" result="effect1_dropShadow_5_1329"/>
<feBlend mode="normal" in="SourceGraphic" in2="effect1_dropShadow_5_1329" result="shape"/>
</filter>
<clipPath id="clip0_5_1329">
<rect width="16" height="16" fill="white" transform="translate(20 20)"/>
</clipPath>
</defs>
</svg>
