<svg width="16" height="17" viewBox="0 0 16 17" fill="none" xmlns="http://www.w3.org/2000/svg">
<g clip-path="url(#clip0_5_1000)">
<path d="M14.8764 2.00774C12.8659 -0.00276268 9.59472 -0.00273144 7.58421 2.00777C6.21093 3.38105 5.73393 5.40483 6.32856 7.24092L0.521621 13.0479C0.433715 13.1358 0.384277 13.2548 0.384277 13.3793V16.0311C0.384277 16.2902 0.593934 16.4999 0.853027 16.4999H3.50484C3.62934 16.4999 3.74837 16.4505 3.83625 16.3625L4.49909 15.6992C4.60025 15.5981 4.64968 15.4562 4.63321 15.3138L4.55081 14.6015L5.53775 14.5086C5.76206 14.4875 5.93921 14.3104 5.96028 14.086L6.05321 13.0991L6.7655 13.182C6.89778 13.1998 7.031 13.1554 7.13125 13.0666C7.23103 12.9774 7.28825 12.8501 7.28825 12.7164V11.8436H8.14518C8.26968 11.8436 8.38871 11.7942 8.47659 11.7063L9.67868 10.5201C11.5143 11.1152 13.5031 10.6741 14.8764 9.29992C16.8869 7.28946 16.8869 4.01824 14.8764 2.00774ZM13.5503 5.32242C13.0019 5.87083 12.1102 5.87083 11.5617 5.32242C11.0133 4.77402 11.0133 3.8823 11.5617 3.33389C12.1102 2.78549 13.0019 2.78549 13.5503 3.33389C14.0987 3.8823 14.0987 4.77402 13.5503 5.32242Z" fill="#949494"/>
</g>
<defs>
<clipPath id="clip0_5_1000">
<rect width="16" height="16" fill="white" transform="translate(0 0.5)"/>
</clipPath>
</defs>
</svg>
