<svg width="17" height="17" viewBox="0 0 17 17" fill="none" xmlns="http://www.w3.org/2000/svg">
<g clip-path="url(#clip0_5_991)">
<path d="M11.7495 0.5H5.01723C4.37339 0.5 3.85327 1.02214 3.85327 1.66598V15.3355C3.85327 15.9774 4.37339 16.5 5.01723 16.5H11.7495C12.3923 16.5 12.9145 15.9779 12.9145 15.3355V1.66598C12.914 1.02214 12.3923 0.5 11.7495 0.5ZM12.0414 13.4636H4.72637V2.46686H12.0414V13.4636ZM9.94423 1.68315H6.823V1.3428H9.94473L9.94423 1.68315ZM11.2799 1.52762C11.2799 1.69224 11.1456 1.82555 10.9814 1.82555C10.8168 1.82555 10.683 1.69173 10.683 1.52762C10.683 1.3635 10.8168 1.22968 10.9814 1.22968C11.1461 1.22918 11.2799 1.363 11.2799 1.52762ZM9.80435 15.2578H6.96187V14.3832H9.80435V15.2578Z" fill="#949494"/>
</g>
<defs>
<clipPath id="clip0_5_991">
<rect width="16" height="16" fill="white" transform="translate(0.384033 0.5)"/>
</clipPath>
</defs>
</svg>
